<?xml version="1.0" standalone="no"?>
<svg xmlns:xlink="http://www.w3.org/1999/xlink" id="wave" style="transform:rotate(180deg); transition: 0.3s" viewBox="0 0 1440 220" version="1.1" xmlns="http://www.w3.org/2000/svg"><defs><linearGradient id="sw-gradient-0" x1="0" x2="0" y1="1" y2="0"><stop stop-color="rgba(85, 113, 175, 1)" offset="0%"/><stop stop-color="rgba(85, 113, 175, 1)" offset="100%"/></linearGradient></defs><path style="transform:translate(0, 0px); opacity:1" fill="url(#sw-gradient-0)" d="M0,88L60,106.3C120,125,240,161,360,161.3C480,161,600,125,720,99C840,73,960,59,1080,44C1200,29,1320,15,1440,36.7C1560,59,1680,117,1800,124.7C1920,132,2040,88,2160,88C2280,88,2400,132,2520,139.3C2640,147,2760,117,2880,99C3000,81,3120,73,3240,66C3360,59,3480,51,3600,55C3720,59,3840,73,3960,69.7C4080,66,4200,44,4320,36.7C4440,29,4560,37,4680,33C4800,29,4920,15,5040,11C5160,7,5280,15,5400,22C5520,29,5640,37,5760,47.7C5880,59,6000,73,6120,91.7C6240,110,6360,132,6480,128.3C6600,125,6720,95,6840,69.7C6960,44,7080,22,7200,22C7320,22,7440,44,7560,51.3C7680,59,7800,51,7920,55C8040,59,8160,73,8280,84.3C8400,95,8520,103,8580,106.3L8640,110L8640,220L8580,220C8520,220,8400,220,8280,220C8160,220,8040,220,7920,220C7800,220,7680,220,7560,220C7440,220,7320,220,7200,220C7080,220,6960,220,6840,220C6720,220,6600,220,6480,220C6360,220,6240,220,6120,220C6000,220,5880,220,5760,220C5640,220,5520,220,5400,220C5280,220,5160,220,5040,220C4920,220,4800,220,4680,220C4560,220,4440,220,4320,220C4200,220,4080,220,3960,220C3840,220,3720,220,3600,220C3480,220,3360,220,3240,220C3120,220,3000,220,2880,220C2760,220,2640,220,2520,220C2400,220,2280,220,2160,220C2040,220,1920,220,1800,220C1680,220,1560,220,1440,220C1320,220,1200,220,1080,220C960,220,840,220,720,220C600,220,480,220,360,220C240,220,120,220,60,220L0,220Z"/></svg>